<mxfile host="app.diagrams.net" modified="2022-12-13T09:50:51.548Z" agent="5.0 (Macintosh; Intel Mac OS X 10_15_7) AppleWebKit/537.36 (KHTML, like Gecko) Chrome/108.0.0.0 Safari/537.36" etag="XE5JJJU1dfebGUpZHDDE" version="20.6.0" type="github">
  <diagram name="Page-1" id="7a6c530e-6e37-e111-ec74-82921da8cc10">
    <mxGraphModel dx="1854" dy="2359" grid="1" gridSize="10" guides="1" tooltips="1" connect="1" arrows="1" fold="1" page="1" pageScale="1.5" pageWidth="1169" pageHeight="826" math="0" shadow="0">
      <root>
        <mxCell id="0" style=";html=1;" />
        <mxCell id="1" style=";html=1;" parent="0" />
        <mxCell id="A9gRQ4BLkHT6JIfoOvPn-9" value="" style="rounded=1;whiteSpace=wrap;html=1;shadow=0;strokeWidth=2;fillColor=#B3B3B3;fontSize=12;fontColor=#FFFFFF;align=center;strokeColor=none;arcSize=3;verticalAlign=top;" vertex="1" parent="1">
          <mxGeometry x="474" y="-310" width="364" height="196" as="geometry" />
        </mxCell>
        <mxCell id="A9gRQ4BLkHT6JIfoOvPn-10" value="" style="rounded=1;whiteSpace=wrap;html=1;shadow=0;strokeWidth=2;fillColor=#009BFF;fontSize=12;fontColor=#FFFFFF;align=center;strokeColor=none;arcSize=3;verticalAlign=top;" vertex="1" parent="1">
          <mxGeometry x="475" y="-80" width="364" height="190" as="geometry" />
        </mxCell>
        <mxCell id="A9gRQ4BLkHT6JIfoOvPn-6" value="" style="rounded=1;whiteSpace=wrap;html=1;shadow=0;strokeWidth=2;fillColor=#8BC63E;fontSize=12;fontColor=#000000;align=center;strokeColor=none;arcSize=3;" vertex="1" parent="1">
          <mxGeometry x="876" y="-310" width="236" height="420" as="geometry" />
        </mxCell>
        <mxCell id="A9gRQ4BLkHT6JIfoOvPn-48" style="edgeStyle=none;rounded=0;orthogonalLoop=1;jettySize=auto;html=1;dashed=1;fontColor=#FFFFFF;strokeColor=#FF6666;strokeWidth=2;" edge="1" parent="1" source="A9gRQ4BLkHT6JIfoOvPn-1">
          <mxGeometry relative="1" as="geometry">
            <mxPoint x="716" y="-171.9000000000001" as="targetPoint" />
          </mxGeometry>
        </mxCell>
        <mxCell id="A9gRQ4BLkHT6JIfoOvPn-65" style="edgeStyle=orthogonalEdgeStyle;rounded=0;orthogonalLoop=1;jettySize=auto;html=1;exitX=1;exitY=0.5;exitDx=0;exitDy=0;entryX=0.176;entryY=0.168;entryDx=0;entryDy=0;entryPerimeter=0;dashed=1;strokeColor=#FF6666;fontColor=#000000;strokeWidth=2;" edge="1" parent="1" source="A9gRQ4BLkHT6JIfoOvPn-1" target="A9gRQ4BLkHT6JIfoOvPn-4">
          <mxGeometry relative="1" as="geometry" />
        </mxCell>
        <mxCell id="A9gRQ4BLkHT6JIfoOvPn-66" style="edgeStyle=orthogonalEdgeStyle;rounded=0;orthogonalLoop=1;jettySize=auto;html=1;exitX=1;exitY=1;exitDx=0;exitDy=0;entryX=0.02;entryY=0.09;entryDx=0;entryDy=0;entryPerimeter=0;dashed=1;strokeColor=#FF6666;fontColor=#000000;strokeWidth=2;" edge="1" parent="1" source="A9gRQ4BLkHT6JIfoOvPn-1" target="A9gRQ4BLkHT6JIfoOvPn-7">
          <mxGeometry relative="1" as="geometry" />
        </mxCell>
        <mxCell id="A9gRQ4BLkHT6JIfoOvPn-1" value="SmartIDE CLI" style="shape=image;verticalLabelPosition=bottom;labelBackgroundColor=none;verticalAlign=top;aspect=fixed;imageAspect=0;image=data:image/svg+xml,PHN2ZyB4bWxuczpjYz0iaHR0cDovL2NyZWF0aXZlY29tbW9ucy5vcmcvbnMjIiB4bWxuczpkYz0iaHR0cDovL3B1cmwub3JnL2RjL2VsZW1lbnRzLzEuMS8iIHhtbG5zOmlua3NjYXBlPSJodHRwOi8vd3d3Lmlua3NjYXBlLm9yZy9uYW1lc3BhY2VzL2lua3NjYXBlIiB4bWxuczpyZGY9Imh0dHA6Ly93d3cudzMub3JnLzE5OTkvMDIvMjItcmRmLXN5bnRheC1ucyMiIHhtbG5zOnNvZGlwb2RpPSJodHRwOi8vc29kaXBvZGkuc291cmNlZm9yZ2UubmV0L0RURC9zb2RpcG9kaS0wLmR0ZCIgeG1sbnM6c3ZnPSJodHRwOi8vd3d3LnczLm9yZy8yMDAwL3N2ZyIgeG1sbnM9Imh0dHA6Ly93d3cudzMub3JnLzIwMDAvc3ZnIiB4bWxuczp4bGluaz0iaHR0cDovL3d3dy53My5vcmcvMTk5OS94bGluayIgdmVyc2lvbj0iMS4xIiBpZD0ic3ZnMTE4MDI3IiBpbmtzY2FwZTp2ZXJzaW9uPSIwLjkyLjMgKDI0MDU1NDYsIDIwMTgtMDMtMTEpIiBzb2RpcG9kaTpkb2NuYW1lPSJhenVyZV9jbGkuc3ZnIiB4PSIwcHgiIHk9IjBweCIgdmlld0JveD0iMCAwIDYxLjQyIDQ4LjQ5IiBzdHlsZT0iZW5hYmxlLWJhY2tncm91bmQ6bmV3IDAgMCA2MS40MiA0OC40OTsiIHhtbDpzcGFjZT0icHJlc2VydmUiPiYjeGE7PHNvZGlwb2RpOm5hbWVkdmlldyBib3JkZXJjb2xvcj0iIzY2NjY2NiIgYm9yZGVyb3BhY2l0eT0iMSIgZml0LW1hcmdpbi1ib3R0b209IjAiIGZpdC1tYXJnaW4tbGVmdD0iMCIgZml0LW1hcmdpbi1yaWdodD0iMCIgZml0LW1hcmdpbi10b3A9IjAiIGdyaWR0b2xlcmFuY2U9IjEwIiBndWlkZXRvbGVyYW5jZT0iMTAiIGlkPSJuYW1lZHZpZXcxMTgwMjkiIGlua3NjYXBlOmN1cnJlbnQtbGF5ZXI9InN2ZzExODAyNyIgaW5rc2NhcGU6Y3g9IjQwLjk0MjI0MiIgaW5rc2NhcGU6Y3k9IjMyLjMyODkiIGlua3NjYXBlOnBhZ2VvcGFjaXR5PSIwIiBpbmtzY2FwZTpwYWdlc2hhZG93PSIyIiBpbmtzY2FwZTp3aW5kb3ctaGVpZ2h0PSIxMDE3IiBpbmtzY2FwZTp3aW5kb3ctbWF4aW1pemVkPSIxIiBpbmtzY2FwZTp3aW5kb3ctd2lkdGg9IjE5MjAiIGlua3NjYXBlOndpbmRvdy14PSItOCIgaW5rc2NhcGU6d2luZG93LXk9Ii04IiBpbmtzY2FwZTp6b29tPSIxMC4xOTQxNTkiIG9iamVjdHRvbGVyYW5jZT0iMTAiIHBhZ2Vjb2xvcj0iI2ZmZmZmZiIgc2hvd2dyaWQ9ImZhbHNlIj4mI3hhOwk8L3NvZGlwb2RpOm5hbWVkdmlldz4mI3hhOzxnIGlkPSJnMTE4MDI1IiB0cmFuc2Zvcm09InRyYW5zbGF0ZSgtNy42NTEzMjc2LC03LjY1KSI+JiN4YTsJPHRpdGxlIGlkPSJ0aXRsZTExODAwMCI+UGFnZS0xPC90aXRsZT4mI3hhOwk8ZyBpZD0iZ3JvdXAxMzMwLTEiIHRyYW5zZm9ybT0idHJhbnNsYXRlKDcuMzc0NjgsLTcuNjUpIj4mI3hhOwkJPHRpdGxlIGlkPSJ0aXRsZTExODAwMiI+QXp1cmUgQ0xJPC90aXRsZT4mI3hhOwkJPGcgaWQ9InNoYXBlMTMzMS0yIj4mI3hhOwkJCTx0aXRsZSBpZD0idGl0bGUxMTgwMDQiPlNoZWV0LjEzMzE8L3RpdGxlPiYjeGE7CQkJPHBhdGggaWQ9InBhdGgxMTgwMDYiIGlua3NjYXBlOmNvbm5lY3Rvci1jdXJ2YXR1cmU9IjAiIHN0eWxlPSJmaWxsOiMzRjU3NjU7IiBkPSJNNTAuMjYsNjMuNzlIMy42M2MtMi4xNSwwLTMuNjMtMS41NS0zLjMxLTMuNDcgICAgIGw2LjkyLTQxLjU2YzAuMzItMS45MSwyLjMyLTMuNDYsNC40Ny0zLjQ2aDQ2LjYzYzIuMTUsMCwzLjYzLDEuNTUsMy4zMSwzLjQ2bC02LjkzLDQxLjU2QzU0LjQsNjIuMjQsNTIuNDEsNjMuNzksNTAuMjYsNjMuNzl6Ii8+JiN4YTsJCTwvZz4mI3hhOwkJPGcgaWQ9InNoYXBlMTMzMi00IiB0cmFuc2Zvcm09InRyYW5zbGF0ZSgxMy44NzksLTUuNDU3MDcpIj4mI3hhOwkJCTx0aXRsZSBpZD0idGl0bGUxMTgwMDkiPlNoZWV0LjEzMzI8L3RpdGxlPiYjeGE7CQkJPHBhdGggaWQ9InBhdGgxMTgwMTEiIGlua3NjYXBlOmNvbm5lY3Rvci1jdXJ2YXR1cmU9IjAiIHN0eWxlPSJmaWxsOiNGRkZGRkY7IiBkPSJNMi43LDYzLjc5Yy0wLjczLDAtMS40NS0wLjMzLTEuOTItMC45NiAgICAgYy0wLjc4LTEuMDUtMC41Ni0yLjU0LDAuNS0zLjMxbDIwLjAzLTE0Ljc0TDYuODMsMzEuMmMtMC45NS0wLjktMS0yLjM5LTAuMDktMy4zNGMwLjktMC45NSwyLjQxLTEsMy4zNi0wLjFsMTYuNTUsMTUuNTIgICAgIGMwLjUxLDAuNDgsMC43OCwxLjE2LDAuNzQsMS44NlMyNyw0Ni40OSwyNi40Myw0Ni45TDQuMTEsNjMuMzJDMy42OSw2My42NCwzLjE5LDYzLjc5LDIuNyw2My43OXoiLz4mI3hhOwkJPC9nPiYjeGE7CQk8ZyBpZD0ic2hhcGUxMzMzLTYiIHRyYW5zZm9ybT0idHJhbnNsYXRlKDI4LjY1NTEsLTUuNjAwOTEpIj4mI3hhOwkJCTx0aXRsZSBpZD0idGl0bGUxMTgwMTQiPlNoZWV0LjEzMzM8L3RpdGxlPiYjeGE7CQkJPHBhdGggaWQ9InBhdGgxMTgwMTYiIGlua3NjYXBlOmNvbm5lY3Rvci1jdXJ2YXR1cmU9IjAiIHN0eWxlPSJmaWxsOiNGRkZGRkY7IiBkPSJNMTMuNDMsNjMuNzlIMi4zOEMxLjA3LDYzLjc5LDAsNjIuNzMsMCw2MS40MiAgICAgYzAtMS4zMSwxLjA3LTIuMzcsMi4zOC0yLjM3aDExLjA1YzEuMzIsMCwyLjM5LDEuMDYsMi4zOSwyLjM3QzE1LjgyLDYyLjczLDE0Ljc1LDYzLjc5LDEzLjQzLDYzLjc5eiIvPiYjeGE7CQk8L2c+JiN4YTsJCTxnIGlkPSJzaGFwZTEzMzQtOCIgdHJhbnNmb3JtPSJ0cmFuc2xhdGUoNy43Nzc5MiwtMS41OTg0MSkiPiYjeGE7CQkJPHRpdGxlIGlkPSJ0aXRsZTExODAxOSI+U2hlZXQuMTMzNDwvdGl0bGU+JiN4YTsJCQk8cGF0aCBpZD0icGF0aDExODAyMSIgaW5rc2NhcGU6Y29ubmVjdG9yLWN1cnZhdHVyZT0iMCIgc3R5bGU9ImZpbGw6I0ZGRkZGRjtmaWxsLW9wYWNpdHk6MC4yNTsiIGQ9Ik01MC41NiwxNi45MUgzLjkzICAgICBjLTEuNjEsMC0zLjEzLDAuODYtMy45MywyLjFjMTEuNiwxMS4wNywzNC45NCwzMy45Miw0Ni4wMiw0NC43OGMwLjQ3LTAuNTQsMC44MS0xLjIzLDAuOTItMS45Mmw2LjkzLTQxLjQ5ICAgICBDNTQuMTksMTguNDcsNTIuNzEsMTYuOTEsNTAuNTYsMTYuOTF6Ii8+JiN4YTsJCTwvZz4mI3hhOwk8L2c+JiN4YTs8L2c+JiN4YTs8L3N2Zz4=;fontColor=#FFFFFF;imageBackground=none;" vertex="1" parent="1">
          <mxGeometry x="765" y="-190" width="46" height="36.2" as="geometry" />
        </mxCell>
        <mxCell id="A9gRQ4BLkHT6JIfoOvPn-8" value="Cloud" style="shadow=0;dashed=0;html=1;strokeColor=none;fillColor=#FFFFFF;labelPosition=center;verticalLabelPosition=bottom;verticalAlign=top;shape=mxgraph.office.clouds.azure;rounded=1;fontSize=12;fontColor=#FFFFFF;align=center;" vertex="1" parent="1">
          <mxGeometry x="885" y="-300" width="62.64" height="40" as="geometry" />
        </mxCell>
        <mxCell id="A9gRQ4BLkHT6JIfoOvPn-4" value="Kubernetes" style="sketch=0;html=1;dashed=0;whitespace=wrap;fillColor=#2875E2;strokeColor=#ffffff;points=[[0.005,0.63,0],[0.1,0.2,0],[0.9,0.2,0],[0.5,0,0],[0.995,0.63,0],[0.72,0.99,0],[0.5,1,0],[0.28,0.99,0]];verticalLabelPosition=bottom;align=center;verticalAlign=top;shape=mxgraph.kubernetes.icon;prIcon=pod;fontColor=#FFFFFF;" vertex="1" parent="1">
          <mxGeometry x="927.8399999999999" y="-180" width="54.84" height="50" as="geometry" />
        </mxCell>
        <mxCell id="A9gRQ4BLkHT6JIfoOvPn-18" value="本地" style="shape=mxgraph.signs.tech.computer;html=1;pointerEvents=1;fillColor=#FFFFFF;strokeColor=none;verticalLabelPosition=bottom;verticalAlign=top;align=center;labelBackgroundColor=none;labelBorderColor=none;sketch=0;fillStyle=auto;fontColor=#FFFFFF;" vertex="1" parent="1">
          <mxGeometry x="488" y="-298" width="30.49" height="24" as="geometry" />
        </mxCell>
        <mxCell id="A9gRQ4BLkHT6JIfoOvPn-20" value="" style="sketch=0;outlineConnect=0;fontColor=#232F3E;gradientColor=none;fillColor=default;strokeColor=none;dashed=0;verticalLabelPosition=bottom;verticalAlign=top;align=center;html=1;fontSize=12;fontStyle=0;aspect=fixed;pointerEvents=1;shape=mxgraph.aws4.traditional_server;labelBackgroundColor=none;labelBorderColor=none;fillStyle=auto;" vertex="1" parent="1">
          <mxGeometry x="489" y="-70" width="23.08" height="40" as="geometry" />
        </mxCell>
        <mxCell id="A9gRQ4BLkHT6JIfoOvPn-21" value="&lt;span style=&quot;color: rgb(255, 255, 255); font-family: Helvetica; font-size: 12px; font-style: normal; font-variant-ligatures: normal; font-variant-caps: normal; font-weight: 400; letter-spacing: normal; orphans: 2; text-align: center; text-indent: 0px; text-transform: none; widows: 2; word-spacing: 0px; -webkit-text-stroke-width: 0px; text-decoration-thickness: initial; text-decoration-style: initial; text-decoration-color: initial; float: none; display: inline !important;&quot;&gt;SmartIDE &lt;br&gt;Server&lt;/span&gt;" style="text;whiteSpace=wrap;html=1;fontColor=#FFFFFF;labelBackgroundColor=none;" vertex="1" parent="1">
          <mxGeometry x="519" y="-70" width="120.49" height="40.16" as="geometry" />
        </mxCell>
        <mxCell id="A9gRQ4BLkHT6JIfoOvPn-45" style="edgeStyle=none;rounded=0;orthogonalLoop=1;jettySize=auto;html=1;entryX=0;entryY=0.5;entryDx=0;entryDy=0;dashed=1;strokeColor=#FFFFFF;fontColor=#FFFFFF;" edge="1" parent="1" source="A9gRQ4BLkHT6JIfoOvPn-7">
          <mxGeometry relative="1" as="geometry">
            <mxPoint x="1037.0000000000002" y="-27.11999999999989" as="targetPoint" />
          </mxGeometry>
        </mxCell>
        <mxCell id="A9gRQ4BLkHT6JIfoOvPn-7" value="" style="verticalLabelPosition=bottom;html=1;verticalAlign=top;shape=mxgraph.azure.virtual_machine;rounded=1;shadow=0;fontSize=12;align=center;strokeColor=none;gradientColor=none;" vertex="1" parent="1">
          <mxGeometry x="927.84" y="-50" width="54.16" height="45.75" as="geometry" />
        </mxCell>
        <mxCell id="A9gRQ4BLkHT6JIfoOvPn-33" style="edgeStyle=orthogonalEdgeStyle;rounded=0;orthogonalLoop=1;jettySize=auto;html=1;dashed=1;strokeColor=#FFFFFF;fontColor=#FFFFFF;" edge="1" parent="1" source="A9gRQ4BLkHT6JIfoOvPn-22" target="A9gRQ4BLkHT6JIfoOvPn-23">
          <mxGeometry relative="1" as="geometry" />
        </mxCell>
        <mxCell id="A9gRQ4BLkHT6JIfoOvPn-22" value="minikube" style="sketch=0;html=1;dashed=0;whitespace=wrap;points=[[0.005,0.63,0],[0.1,0.2,0],[0.9,0.2,0],[0.5,0,0],[0.995,0.63,0],[0.72,0.99,0],[0.5,1,0],[0.28,0.99,0]];verticalLabelPosition=bottom;align=center;verticalAlign=top;shape=mxgraph.kubernetes.icon;prIcon=pod;fillColor=#FFFFFF;strokeColor=default;fontColor=#FFFFFF;" vertex="1" parent="1">
          <mxGeometry x="565" y="5.98" width="46" height="44.04" as="geometry" />
        </mxCell>
        <mxCell id="A9gRQ4BLkHT6JIfoOvPn-34" style="edgeStyle=orthogonalEdgeStyle;rounded=0;orthogonalLoop=1;jettySize=auto;html=1;entryX=0;entryY=0.25;entryDx=0;entryDy=0;dashed=1;strokeColor=#FFFFFF;fontColor=#FFFFFF;" edge="1" parent="1" source="A9gRQ4BLkHT6JIfoOvPn-23" target="A9gRQ4BLkHT6JIfoOvPn-24">
          <mxGeometry relative="1" as="geometry" />
        </mxCell>
        <mxCell id="A9gRQ4BLkHT6JIfoOvPn-23" value="Task / Pipeline" style="sketch=0;html=1;dashed=0;whitespace=wrap;fillColor=#2875E2;strokeColor=#ffffff;points=[[0.005,0.63,0],[0.1,0.2,0],[0.9,0.2,0],[0.5,0,0],[0.995,0.63,0],[0.72,0.99,0],[0.5,1,0],[0.28,0.99,0]];verticalLabelPosition=bottom;align=center;verticalAlign=top;shape=mxgraph.kubernetes.icon;prIcon=crd;labelBackgroundColor=none;labelBorderColor=none;fillStyle=auto;fontColor=#FFFFFF;" vertex="1" parent="1">
          <mxGeometry x="655" y="4" width="50" height="48" as="geometry" />
        </mxCell>
        <mxCell id="A9gRQ4BLkHT6JIfoOvPn-64" style="edgeStyle=orthogonalEdgeStyle;rounded=0;orthogonalLoop=1;jettySize=auto;html=1;dashed=1;strokeColor=#FF6666;fontColor=#000000;entryX=0.995;entryY=0.63;entryDx=0;entryDy=0;entryPerimeter=0;strokeWidth=2;" edge="1" parent="1" source="A9gRQ4BLkHT6JIfoOvPn-24" target="A9gRQ4BLkHT6JIfoOvPn-4">
          <mxGeometry relative="1" as="geometry">
            <mxPoint x="970" y="-130" as="targetPoint" />
            <Array as="points">
              <mxPoint x="1000" y="50" />
              <mxPoint x="1000" y="-150" />
              <mxPoint x="990" y="-150" />
              <mxPoint x="990" y="-148" />
            </Array>
          </mxGeometry>
        </mxCell>
        <mxCell id="A9gRQ4BLkHT6JIfoOvPn-24" value="SmartIDE CLI" style="shape=image;verticalLabelPosition=bottom;labelBackgroundColor=none;verticalAlign=top;aspect=fixed;imageAspect=0;image=data:image/svg+xml,PHN2ZyB4bWxuczpjYz0iaHR0cDovL2NyZWF0aXZlY29tbW9ucy5vcmcvbnMjIiB4bWxuczpkYz0iaHR0cDovL3B1cmwub3JnL2RjL2VsZW1lbnRzLzEuMS8iIHhtbG5zOmlua3NjYXBlPSJodHRwOi8vd3d3Lmlua3NjYXBlLm9yZy9uYW1lc3BhY2VzL2lua3NjYXBlIiB4bWxuczpyZGY9Imh0dHA6Ly93d3cudzMub3JnLzE5OTkvMDIvMjItcmRmLXN5bnRheC1ucyMiIHhtbG5zOnNvZGlwb2RpPSJodHRwOi8vc29kaXBvZGkuc291cmNlZm9yZ2UubmV0L0RURC9zb2RpcG9kaS0wLmR0ZCIgeG1sbnM6c3ZnPSJodHRwOi8vd3d3LnczLm9yZy8yMDAwL3N2ZyIgeG1sbnM9Imh0dHA6Ly93d3cudzMub3JnLzIwMDAvc3ZnIiB4bWxuczp4bGluaz0iaHR0cDovL3d3dy53My5vcmcvMTk5OS94bGluayIgdmVyc2lvbj0iMS4xIiBpZD0ic3ZnMTE4MDI3IiBpbmtzY2FwZTp2ZXJzaW9uPSIwLjkyLjMgKDI0MDU1NDYsIDIwMTgtMDMtMTEpIiBzb2RpcG9kaTpkb2NuYW1lPSJhenVyZV9jbGkuc3ZnIiB4PSIwcHgiIHk9IjBweCIgdmlld0JveD0iMCAwIDYxLjQyIDQ4LjQ5IiBzdHlsZT0iZW5hYmxlLWJhY2tncm91bmQ6bmV3IDAgMCA2MS40MiA0OC40OTsiIHhtbDpzcGFjZT0icHJlc2VydmUiPiYjeGE7PHNvZGlwb2RpOm5hbWVkdmlldyBib3JkZXJjb2xvcj0iIzY2NjY2NiIgYm9yZGVyb3BhY2l0eT0iMSIgZml0LW1hcmdpbi1ib3R0b209IjAiIGZpdC1tYXJnaW4tbGVmdD0iMCIgZml0LW1hcmdpbi1yaWdodD0iMCIgZml0LW1hcmdpbi10b3A9IjAiIGdyaWR0b2xlcmFuY2U9IjEwIiBndWlkZXRvbGVyYW5jZT0iMTAiIGlkPSJuYW1lZHZpZXcxMTgwMjkiIGlua3NjYXBlOmN1cnJlbnQtbGF5ZXI9InN2ZzExODAyNyIgaW5rc2NhcGU6Y3g9IjQwLjk0MjI0MiIgaW5rc2NhcGU6Y3k9IjMyLjMyODkiIGlua3NjYXBlOnBhZ2VvcGFjaXR5PSIwIiBpbmtzY2FwZTpwYWdlc2hhZG93PSIyIiBpbmtzY2FwZTp3aW5kb3ctaGVpZ2h0PSIxMDE3IiBpbmtzY2FwZTp3aW5kb3ctbWF4aW1pemVkPSIxIiBpbmtzY2FwZTp3aW5kb3ctd2lkdGg9IjE5MjAiIGlua3NjYXBlOndpbmRvdy14PSItOCIgaW5rc2NhcGU6d2luZG93LXk9Ii04IiBpbmtzY2FwZTp6b29tPSIxMC4xOTQxNTkiIG9iamVjdHRvbGVyYW5jZT0iMTAiIHBhZ2Vjb2xvcj0iI2ZmZmZmZiIgc2hvd2dyaWQ9ImZhbHNlIj4mI3hhOwk8L3NvZGlwb2RpOm5hbWVkdmlldz4mI3hhOzxnIGlkPSJnMTE4MDI1IiB0cmFuc2Zvcm09InRyYW5zbGF0ZSgtNy42NTEzMjc2LC03LjY1KSI+JiN4YTsJPHRpdGxlIGlkPSJ0aXRsZTExODAwMCI+UGFnZS0xPC90aXRsZT4mI3hhOwk8ZyBpZD0iZ3JvdXAxMzMwLTEiIHRyYW5zZm9ybT0idHJhbnNsYXRlKDcuMzc0NjgsLTcuNjUpIj4mI3hhOwkJPHRpdGxlIGlkPSJ0aXRsZTExODAwMiI+QXp1cmUgQ0xJPC90aXRsZT4mI3hhOwkJPGcgaWQ9InNoYXBlMTMzMS0yIj4mI3hhOwkJCTx0aXRsZSBpZD0idGl0bGUxMTgwMDQiPlNoZWV0LjEzMzE8L3RpdGxlPiYjeGE7CQkJPHBhdGggaWQ9InBhdGgxMTgwMDYiIGlua3NjYXBlOmNvbm5lY3Rvci1jdXJ2YXR1cmU9IjAiIHN0eWxlPSJmaWxsOiMzRjU3NjU7IiBkPSJNNTAuMjYsNjMuNzlIMy42M2MtMi4xNSwwLTMuNjMtMS41NS0zLjMxLTMuNDcgICAgIGw2LjkyLTQxLjU2YzAuMzItMS45MSwyLjMyLTMuNDYsNC40Ny0zLjQ2aDQ2LjYzYzIuMTUsMCwzLjYzLDEuNTUsMy4zMSwzLjQ2bC02LjkzLDQxLjU2QzU0LjQsNjIuMjQsNTIuNDEsNjMuNzksNTAuMjYsNjMuNzl6Ii8+JiN4YTsJCTwvZz4mI3hhOwkJPGcgaWQ9InNoYXBlMTMzMi00IiB0cmFuc2Zvcm09InRyYW5zbGF0ZSgxMy44NzksLTUuNDU3MDcpIj4mI3hhOwkJCTx0aXRsZSBpZD0idGl0bGUxMTgwMDkiPlNoZWV0LjEzMzI8L3RpdGxlPiYjeGE7CQkJPHBhdGggaWQ9InBhdGgxMTgwMTEiIGlua3NjYXBlOmNvbm5lY3Rvci1jdXJ2YXR1cmU9IjAiIHN0eWxlPSJmaWxsOiNGRkZGRkY7IiBkPSJNMi43LDYzLjc5Yy0wLjczLDAtMS40NS0wLjMzLTEuOTItMC45NiAgICAgYy0wLjc4LTEuMDUtMC41Ni0yLjU0LDAuNS0zLjMxbDIwLjAzLTE0Ljc0TDYuODMsMzEuMmMtMC45NS0wLjktMS0yLjM5LTAuMDktMy4zNGMwLjktMC45NSwyLjQxLTEsMy4zNi0wLjFsMTYuNTUsMTUuNTIgICAgIGMwLjUxLDAuNDgsMC43OCwxLjE2LDAuNzQsMS44NlMyNyw0Ni40OSwyNi40Myw0Ni45TDQuMTEsNjMuMzJDMy42OSw2My42NCwzLjE5LDYzLjc5LDIuNyw2My43OXoiLz4mI3hhOwkJPC9nPiYjeGE7CQk8ZyBpZD0ic2hhcGUxMzMzLTYiIHRyYW5zZm9ybT0idHJhbnNsYXRlKDI4LjY1NTEsLTUuNjAwOTEpIj4mI3hhOwkJCTx0aXRsZSBpZD0idGl0bGUxMTgwMTQiPlNoZWV0LjEzMzM8L3RpdGxlPiYjeGE7CQkJPHBhdGggaWQ9InBhdGgxMTgwMTYiIGlua3NjYXBlOmNvbm5lY3Rvci1jdXJ2YXR1cmU9IjAiIHN0eWxlPSJmaWxsOiNGRkZGRkY7IiBkPSJNMTMuNDMsNjMuNzlIMi4zOEMxLjA3LDYzLjc5LDAsNjIuNzMsMCw2MS40MiAgICAgYzAtMS4zMSwxLjA3LTIuMzcsMi4zOC0yLjM3aDExLjA1YzEuMzIsMCwyLjM5LDEuMDYsMi4zOSwyLjM3QzE1LjgyLDYyLjczLDE0Ljc1LDYzLjc5LDEzLjQzLDYzLjc5eiIvPiYjeGE7CQk8L2c+JiN4YTsJCTxnIGlkPSJzaGFwZTEzMzQtOCIgdHJhbnNmb3JtPSJ0cmFuc2xhdGUoNy43Nzc5MiwtMS41OTg0MSkiPiYjeGE7CQkJPHRpdGxlIGlkPSJ0aXRsZTExODAxOSI+U2hlZXQuMTMzNDwvdGl0bGU+JiN4YTsJCQk8cGF0aCBpZD0icGF0aDExODAyMSIgaW5rc2NhcGU6Y29ubmVjdG9yLWN1cnZhdHVyZT0iMCIgc3R5bGU9ImZpbGw6I0ZGRkZGRjtmaWxsLW9wYWNpdHk6MC4yNTsiIGQ9Ik01MC41NiwxNi45MUgzLjkzICAgICBjLTEuNjEsMC0zLjEzLDAuODYtMy45MywyLjFjMTEuNiwxMS4wNywzNC45NCwzMy45Miw0Ni4wMiw0NC43OGMwLjQ3LTAuNTQsMC44MS0xLjIzLDAuOTItMS45Mmw2LjkzLTQxLjQ5ICAgICBDNTQuMTksMTguNDcsNTIuNzEsMTYuOTEsNTAuNTYsMTYuOTF6Ii8+JiN4YTsJCTwvZz4mI3hhOwk8L2c+JiN4YTs8L2c+JiN4YTs8L3N2Zz4=;fontColor=#FFFFFF;imageBackground=none;" vertex="1" parent="1">
          <mxGeometry x="751.31" y="17.72" width="47.37" height="37.28" as="geometry" />
        </mxCell>
        <mxCell id="A9gRQ4BLkHT6JIfoOvPn-32" value="" style="endArrow=classic;html=1;rounded=0;dashed=1;strokeColor=#FF6666;fontColor=#FFFFFF;entryX=0.5;entryY=1;entryDx=0;entryDy=0;entryPerimeter=0;edgeStyle=orthogonalEdgeStyle;exitX=1;exitY=0.25;exitDx=0;exitDy=0;strokeWidth=2;" edge="1" parent="1" source="A9gRQ4BLkHT6JIfoOvPn-24" target="A9gRQ4BLkHT6JIfoOvPn-7">
          <mxGeometry width="50" height="50" relative="1" as="geometry">
            <mxPoint x="810" y="-70" as="sourcePoint" />
            <mxPoint x="860" y="-120" as="targetPoint" />
            <Array as="points">
              <mxPoint x="799" y="30" />
              <mxPoint x="955" y="30" />
            </Array>
          </mxGeometry>
        </mxCell>
        <mxCell id="A9gRQ4BLkHT6JIfoOvPn-53" value="" style="shape=image;html=1;verticalAlign=top;verticalLabelPosition=bottom;labelBackgroundColor=#ffffff;imageAspect=0;aspect=fixed;image=https://cdn2.iconfinder.com/data/icons/boxicons-logos/24/bxl-docker-128.png;labelBorderColor=none;sketch=0;fillStyle=auto;strokeColor=default;fontColor=#FFFFFF;fillColor=#FFFFFF;gradientColor=none;imageBackground=none;imageBorder=none;opacity=70;" vertex="1" parent="1">
          <mxGeometry x="1031" y="-62.13" width="70" height="70" as="geometry" />
        </mxCell>
        <mxCell id="A9gRQ4BLkHT6JIfoOvPn-54" value="" style="shape=image;html=1;verticalAlign=top;verticalLabelPosition=bottom;labelBackgroundColor=#ffffff;imageAspect=0;aspect=fixed;image=https://cdn2.iconfinder.com/data/icons/boxicons-logos/24/bxl-docker-128.png;labelBorderColor=none;sketch=0;fillStyle=auto;strokeColor=default;fontColor=#FFFFFF;fillColor=#FFFFFF;gradientColor=none;imageBackground=none;imageBorder=none;opacity=70;" vertex="1" parent="1">
          <mxGeometry x="655" y="-210" width="70" height="70" as="geometry" />
        </mxCell>
        <mxCell id="A9gRQ4BLkHT6JIfoOvPn-55" value="&lt;div style=&quot;text-align: center;&quot;&gt;&lt;span style=&quot;background-color: initial;&quot;&gt;Docker&lt;/span&gt;&lt;/div&gt;" style="text;whiteSpace=wrap;html=1;fontColor=#FFFFFF;labelBackgroundColor=none;" vertex="1" parent="1">
          <mxGeometry x="662" y="-154.16" width="47" height="24.16" as="geometry" />
        </mxCell>
        <mxCell id="A9gRQ4BLkHT6JIfoOvPn-56" value="&lt;div style=&quot;text-align: center;&quot;&gt;&lt;span style=&quot;background-color: initial;&quot;&gt;Docker&lt;/span&gt;&lt;/div&gt;" style="text;whiteSpace=wrap;html=1;fontColor=#FFFFFF;labelBackgroundColor=none;" vertex="1" parent="1">
          <mxGeometry x="1043" y="-6.439999999999998" width="47" height="24.16" as="geometry" />
        </mxCell>
      </root>
    </mxGraphModel>
  </diagram>
</mxfile>
